<svg version="1.1" xmlns="http://www.w3.org/2000/svg" xmlns:xlink="http://www.w3.org/1999/xlink" width="458.14044" height="124.03797" viewBox="0,0,458.14044,124.03797"><g transform="translate(-10.92978,-113.90647)"><g data-paper-data="{&quot;isPaintingLayer&quot;:true}" stroke-miterlimit="10" stroke-dasharray="" stroke-dashoffset="0" style="mix-blend-mode: normal"><path d="M13.65313,116.62982h452.69374v77.5222h-452.69373z" fill="none" fill-rule="nonzero" stroke="#ffffff" stroke-width="5.4467" stroke-linecap="butt" stroke-linejoin="round"/><g fill="#ffffff" fill-rule="nonzero" stroke="none" stroke-width="0.26459" stroke-linecap="butt" stroke-linejoin="miter"><path d="M44.79597,180.01097c-4.12339,0 -7.34254,-0.83192 -9.65743,-2.49575c-2.29078,-1.66383 -3.72553,-4.23192 -4.30425,-7.70425c-0.09646,-1.06099 0.12057,-1.85674 0.65106,-2.38723c0.53049,-0.53049 1.30213,-0.79574 2.3149,-0.79574c1.01277,0 1.74822,0.24113 2.20638,0.72341c0.48227,0.48227 0.8078,1.2298 0.9766,2.24255c0.36171,1.66383 1.13333,2.80921 2.31489,3.43617c1.20567,0.60284 3.03829,0.90425 5.49787,0.90425h10.41702c3.11063,0 5.22056,-0.5546 6.32979,-1.66383c1.13333,-1.13333 1.69999,-3.2312 1.69999,-6.29361c0,-3.11063 -0.57872,-5.23262 -1.73617,-6.36596c-1.15745,-1.15745 -3.25532,-1.73617 -6.29361,-1.73617h-8.97022c-4.55745,0 -7.94538,-1.10922 -10.16382,-3.32765c-2.19433,-2.24255 -3.29149,-5.64255 -3.29149,-10.2c0,-4.53333 1.0851,-7.89715 3.25532,-10.09149c2.19433,-2.19432 5.5702,-3.29147 10.12765,-3.29147h8.60851c3.83404,0 6.83617,0.78369 9.00638,2.35106c2.19432,1.56738 3.58085,3.96666 4.15957,7.19786c0.14468,1.03688 -0.04822,1.83262 -0.57872,2.38723c-0.53049,0.53049 -1.32625,0.79574 -2.38724,0.79574c-0.96454,0 -1.68793,-0.25319 -2.1702,-0.75957c-0.48227,-0.50639 -0.79574,-1.24185 -0.94042,-2.20638c-0.38581,-1.4227 -1.12127,-2.38723 -2.20638,-2.89361c-1.0851,-0.53049 -2.71277,-0.79575 -4.88298,-0.79575h-8.6085c-2.89362,0 -4.83475,0.51844 -5.8234,1.55532c-0.98865,1.01277 -1.48297,2.92978 -1.48297,5.75105c0,2.84538 0.50638,4.79858 1.51915,5.85957c1.01277,1.06099 2.96596,1.59149 5.85958,1.59149h8.97022c4.75035,0 8.28297,1.15745 10.59785,3.47233c2.339,2.31489 3.50851,5.88368 3.50851,10.70638c0,4.79858 -1.15745,8.34325 -3.47233,10.63403c-2.31489,2.26667 -5.85957,3.4 -10.63403,3.4z"/><path d="M98.47246,180.01097c-5.52197,0 -9.60921,-1.31418 -12.26169,-3.94255c-2.62836,-2.65249 -3.94255,-6.73972 -3.94255,-12.26169v-29.80423c0,-1.01277 0.25319,-1.77234 0.75957,-2.27872c0.50638,-0.50639 1.26595,-0.75957 2.27872,-0.75957c1.01277,0 1.77234,0.25319 2.27872,0.75957c0.50638,0.50639 0.75957,1.26595 0.75957,2.27872v29.80423c0,2.58013 0.30141,4.60567 0.90425,6.07659c0.62696,1.47091 1.67589,2.51986 3.1468,3.1468c1.47091,0.60284 3.49645,0.90425 6.07659,0.90425h8.68084c2.58014,0 4.60568,-0.30141 6.07659,-0.90425c1.47091,-0.62696 2.5078,-1.67589 3.11063,-3.1468c0.62696,-1.47091 0.94042,-3.49645 0.94042,-6.07659v-29.80423c0,-1.01277 0.25319,-1.77234 0.75957,-2.27872c0.50638,-0.50639 1.26596,-0.75957 2.27872,-0.75957c1.01277,0 1.77233,0.25319 2.27872,0.75957c0.50638,0.50639 0.75957,1.26595 0.75957,2.27872v29.80423c0,5.52197 -1.31418,9.60921 -3.94256,12.26169c-2.62836,2.62836 -6.71559,3.94255 -12.26169,3.94255z"/><path d="M169.58296,180.15565c-0.79574,0.50638 -1.55532,0.66312 -2.27872,0.47021c-0.72341,-0.19291 -1.33831,-0.68724 -1.84469,-1.48298l-11.21276,-18.66381h-10.12764v16.49361c0,2.02554 -1.01277,3.0383 -3.0383,3.0383c-2.02554,0 -3.0383,-1.01277 -3.0383,-3.0383v-42.97018c0,-2.02552 1.01277,-3.0383 3.0383,-3.0383h16.92764c4.41277,0 7.78865,1.18155 10.12765,3.54468c2.36312,2.339 3.54468,5.7149 3.54468,10.12765v2.17022c0,3.83404 -0.8922,6.89645 -2.67659,9.18723c-1.78439,2.26667 -4.36452,3.6773 -7.74042,4.23191l9.47658,15.80637c0.91631,1.68794 0.53051,3.06241 -1.15744,4.12339zM144.11915,154.40249h13.88935c2.74894,0 4.70213,-0.57872 5.85958,-1.73617c1.15745,-1.15745 1.73617,-3.11063 1.73617,-5.85957v-2.17022c0,-2.72483 -0.57872,-4.66596 -1.73617,-5.8234c-1.15745,-1.18155 -3.11063,-1.77234 -5.85958,-1.77234h-13.88935z"/><path d="M197.94023,180.01097c-1.25389,0 -2.24254,-0.79574 -2.96594,-2.38723l-17.86807,-42.31912c-0.3617,-0.84397 -0.45815,-1.59148 -0.28935,-2.24255c0.16878,-0.67517 0.72341,-1.2298 1.66383,-1.66383c1.9773,-0.98866 3.37587,-0.48227 4.19574,1.51915l16.89147,40.00422h-2.09787l16.45744,-40.00422c0.79574,-1.9773 2.19432,-2.48368 4.19574,-1.51915c0.84397,0.43403 1.3624,0.98865 1.55532,1.66383c0.21703,0.65106 0.15674,1.39858 -0.18085,2.24255l-18.01275,42.31912c-0.74753,1.59149 -1.83264,2.38723 -3.25532,2.38723z"/><path d="M232.08486,180.01097c-1.03687,0 -1.80851,-0.24113 -2.31489,-0.72341c-0.48227,-0.50638 -0.72341,-1.27801 -0.72341,-2.3149v-42.89783c0,-1.06099 0.24113,-1.83261 0.72341,-2.31489c0.50638,-0.48227 1.27801,-0.72341 2.31489,-0.72341c1.06099,0 1.83264,0.24113 2.3149,0.72341c0.48227,0.48227 0.72341,1.2539 0.72341,2.31489v42.89784c0,1.03687 -0.24113,1.80851 -0.72341,2.3149c-0.48227,0.48227 -1.25391,0.72341 -2.3149,0.72341z"/><path d="M265.57844,180.01097c-1.2539,0 -2.24255,-0.79574 -2.96594,-2.38723l-17.86807,-42.31912c-0.3617,-0.84397 -0.45815,-1.59148 -0.28935,-2.24255c0.16878,-0.67517 0.72341,-1.2298 1.66383,-1.66383c1.9773,-0.98866 3.37587,-0.48227 4.19574,1.51915l16.89147,40.00422h-2.09787l16.45744,-40.00422c0.79574,-1.9773 2.19432,-2.48368 4.19574,-1.51915c0.84397,0.43403 1.3624,0.98865 1.55532,1.66383c0.21703,0.65106 0.15674,1.39858 -0.18085,2.24255l-18.01275,42.31912c-0.74752,1.59149 -1.83262,2.38723 -3.25532,2.38723z"/></g><g fill="#00ff00" fill-rule="evenodd" stroke="#00ff00" stroke-width="0.5" stroke-linecap="square" stroke-linejoin="miter"><path d="M181.95429,214.74234c1.91386,0 3.41479,0.36217 4.50282,1.0865c1.08802,0.72433 1.77489,1.83077 2.06061,3.31927c0.07435,0.47806 -0.02153,0.84384 -0.28767,1.09737c-0.26222,0.2499 -0.65751,0.37484 -1.18587,0.37484c-0.48139,0 -0.84343,-0.11589 -1.08608,-0.34768c-0.23873,-0.2354 -0.39529,-0.57584 -0.46966,-1.02131c-0.19178,-0.65553 -0.55772,-1.10281 -1.09781,-1.34184c-0.54011,-0.24264 -1.35222,-0.36397 -2.43635,-0.36397h-4.29145c-1.4442,0 -2.41285,0.23721 -2.90599,0.71166c-0.48922,0.47443 -0.73383,1.36175 -0.73383,2.66193c0,1.31105 0.25244,2.21285 0.75732,2.70539c0.50489,0.48893 1.47746,0.73339 2.91773,0.73339h4.47344c2.36784,0 4.13101,0.5342 5.28949,1.60259c1.16239,1.06839 1.74358,2.71446 1.74358,4.93816c0,2.21285 -0.57728,3.84622 -1.73185,4.90013c-1.15456,1.05029 -2.92164,1.57543 -5.30122,1.57543h-5.19555c-2.05473,0 -3.65742,-0.38389 -4.80808,-1.15169c-1.14673,-0.7678 -1.86295,-1.95208 -2.14866,-3.55287c-0.05088,-0.48893 0.05479,-0.85652 0.31702,-1.10279c0.26614,-0.24627 0.65165,-0.36942 1.15652,-0.36942c0.50879,0 0.87865,0.11227 1.10956,0.33681c0.23483,0.22092 0.3953,0.56499 0.48139,1.03218c0.18004,0.7678 0.56751,1.29476 1.1624,1.58087c0.5949,0.28249 1.50483,0.42373 2.72985,0.42373h5.19555c1.54987,0 2.60464,-0.25895 3.1643,-0.77685c0.55966,-0.51791 0.83952,-1.48307 0.83952,-2.89553c0,-1.43418 -0.28962,-2.41566 -0.86886,-2.94442c-0.57533,-0.52877 -1.62031,-0.79315 -3.13495,-0.79315h-4.47344c-2.26999,0 -3.95685,-0.51428 -5.06052,-1.54284c-1.09977,-1.02855 -1.64966,-2.59492 -1.64966,-4.69913c0,-2.09333 0.54401,-3.64522 1.63205,-4.65566c1.09195,-1.01407 2.77292,-1.52111 5.04291,-1.52111z"/><path d="M197.17538,214.74234c0.50486,0 0.88254,0.11771 1.13304,0.35312c0.25439,0.23179 0.3816,0.58128 0.3816,1.04847v13.75513c0,1.18791 0.15263,2.12229 0.4579,2.80318c0.30919,0.67725 0.82973,1.15894 1.5616,1.44505c0.73578,0.28249 1.74751,0.42373 3.03515,0.42373h4.32667c1.28763,0 2.29741,-0.14125 3.02928,-0.42373c0.73189,-0.28611 1.25046,-0.7678 1.55574,-1.44505c0.30919,-0.68089 0.46379,-1.61527 0.46379,-2.80318v-13.75513c0,-0.4672 0.12523,-0.81669 0.3757,-1.04847c0.25441,-0.23541 0.63405,-0.35312 1.13894,-0.35312c0.50486,0 0.88254,0.11771 1.13304,0.35312c0.25439,0.23179 0.38157,0.58128 0.38157,1.04847v13.75513c0,2.54604 -0.65554,4.42931 -1.96667,5.64982c-1.3111,1.21688 -3.34824,1.82532 -6.11139,1.82532h-4.32667c-2.75531,0 -4.79244,-0.60844 -6.11138,-1.82532c-1.31502,-1.22051 -1.97253,-3.10378 -1.97253,-5.64982v-13.75513c0,-0.4672 0.12523,-0.81669 0.37573,-1.04847c0.25439,-0.23541 0.63402,-0.35312 1.13891,-0.35312z"/><path d="M226.50125,217.54553v8.01297h6.92739c1.36983,0 2.3424,-0.2662 2.91772,-0.79859c0.57924,-0.53601 0.86886,-1.43781 0.86886,-2.70539v-0.99959c0,-1.26034 -0.28962,-2.16032 -0.86886,-2.69996c-0.57532,-0.53963 -1.54789,-0.80944 -2.91772,-0.80944zM233.42864,214.74235c2.19954,0 3.88442,0.54324 5.05464,1.62975c1.17413,1.08289 1.76122,2.64382 1.76122,4.68283v0.99959c0,1.76737 -0.44617,3.17802 -1.33852,4.23193c-0.88844,1.05029 -2.17409,1.704 -3.85703,1.96114l4.72589,7.29044c0.45792,0.77866 0.26616,1.41246 -0.57531,1.90139c-0.28832,0.17001 -0.56642,0.25501 -0.83432,0.25501c-0.10305,0 -0.20458,-0.01257 -0.30458,-0.03772c-0.36008,-0.08692 -0.66535,-0.31509 -0.91582,-0.68451l-5.59476,-8.61053h-5.04878v7.61095c0,0.9344 -0.50489,1.40159 -1.51464,1.40159c-1.00975,0 -1.51463,-0.46719 -1.51463,-1.40159v-19.82869c0,-0.9344 0.50488,-1.40159 1.51463,-1.40159z"/><path d="M244.51869,214.71698c0.5319,0 0.93406,0.30905 1.20648,0.92716l7.89492,17.29945l7.68584,-17.29945c0.26828,-0.61331 0.67175,-0.91995 1.21043,-0.91995c0.26292,0 0.55807,0.07304 0.8854,0.21916c0.41877,0.20281 0.67906,0.45634 0.7808,0.76056c0.10568,0.30422 0.07438,0.6519 -0.09393,1.04305l-8.98211,19.52447c-0.37574,0.7352 -0.9178,1.1028 -1.6262,1.1028h-0.14089c-0.62621,0 -1.11935,-0.3676 -1.4794,-1.1028l-8.91168,-19.52447c-0.18004,-0.39115 -0.22895,-0.73883 -0.14679,-1.04305c0.08611,-0.30422 0.364,-0.55775 0.83366,-0.76056c0.32616,-0.15092 0.62065,-0.22636 0.88347,-0.22636z"/><path d="M283.31273,214.74234c1.00975,0 1.51464,0.46719 1.51464,1.40159c0,0.9344 -0.50489,1.40159 -1.51464,1.40159h-11.43607v7.01337h7.17983c1.00975,0 1.51464,0.46719 1.51464,1.40159c0,0.9344 -0.50489,1.4016 -1.51464,1.4016h-7.17983v7.20895h11.43607c1.00975,0 1.51464,0.46719 1.51464,1.40159c0,0.9344 -0.50489,1.40159 -1.51464,1.40159h-12.95071c-1.00975,0 -1.51464,-0.46719 -1.51464,-1.40159v-19.82869c0,-0.9344 0.50489,-1.40159 1.51464,-1.40159z"/><path d="M289.46127,214.71698c0.53191,0 0.93407,0.30905 1.20649,0.92716l7.89491,17.29945l7.68587,-17.29945c0.26826,-0.61331 0.67172,-0.91995 1.2104,-0.91995c0.26292,0 0.55807,0.07304 0.88543,0.21916c0.41877,0.20281 0.67903,0.45634 0.7808,0.76056c0.10566,0.30422 0.07435,0.6519 -0.09393,1.04305l-8.98214,19.52447c-0.37574,0.7352 -0.91777,1.1028 -1.62617,1.1028h-0.14092c-0.62621,0 -1.11933,-0.3676 -1.47941,-1.1028l-8.91169,-19.52447c-0.18004,-0.39115 -0.22895,-0.73883 -0.14675,-1.04305c0.08611,-0.30422 0.36397,-0.55775 0.83363,-0.76056c0.32618,-0.15092 0.62066,-0.22636 0.88347,-0.22636z"/><path d="M332.15229,214.74177c0.04757,0 0.09533,0.00018 0.14334,0.00057h4.3619c2.26219,0 3.98814,0.43279 5.17793,1.29838c1.18981,0.86196 1.88058,2.22189 2.07236,4.07982c0.07043,0.4672 -0.0274,0.82393 -0.29354,1.0702c-0.2622,0.24266 -0.64578,0.36399 -1.15064,0.36399c-0.91193,0 -1.44028,-0.46719 -1.58509,-1.40159c-0.12131,-1.02494 -0.50486,-1.71487 -1.15064,-2.06979c-0.64186,-0.35856 -1.66531,-0.53782 -3.07037,-0.53782h-4.3619c-0.04787,-0.00041 -0.09531,-0.00061 -0.14238,-0.00061c-1.20827,0 -2.16273,0.13421 -2.86342,0.40262c-0.72794,0.27887 -1.24456,0.76056 -1.54984,1.44506c-0.30528,0.68449 -0.45793,1.62794 -0.45793,2.83033v7.67616c0,1.18791 0.15265,2.12229 0.45793,2.80318c0.30527,0.67725 0.82384,1.15894 1.55573,1.44505c0.73579,0.28248 1.74751,0.42373 3.03512,0.42373h4.3267c1.40503,0 2.42849,-0.18107 3.07037,-0.54325c0.64578,-0.36218 1.02933,-1.04848 1.15064,-2.05893c0.14481,-0.93439 0.67316,-1.40159 1.58509,-1.40159c0.50486,0 0.88844,0.12314 1.15064,0.36941c0.26615,0.24266 0.36397,0.59758 0.29354,1.06479c-0.1918,1.86879 -0.88257,3.23234 -2.07236,4.09068c-1.18979,0.85471 -2.91575,1.28207 -5.17793,1.28207h-4.3267c-2.75528,0 -4.79047,-0.60844 -6.10549,-1.82533c-1.31502,-1.22051 -1.97254,-3.10378 -1.97254,-5.64982v-7.67616c0,-2.57139 0.65359,-4.46552 1.96081,-5.6824c1.28817,-1.19916 3.26775,-1.79874 5.93868,-1.79874z"/><path d="M351.73484,214.74234c1.00975,0 1.51461,0.46719 1.51461,1.40159v18.4271h9.9919c1.00977,0 1.51464,0.46719 1.51464,1.40159c0,0.9344 -0.50486,1.40159 -1.51464,1.40159h-11.50651c-1.00977,0 -1.51463,-0.46719 -1.51463,-1.40159v-19.82869c0,-0.9344 0.50486,-1.40159 1.51463,-1.40159z"/><path d="M372.39907,215.11176c0.24266,0.22092 0.364,0.57765 0.364,1.07021v19.79066c0,0.47806 -0.12134,0.83118 -0.364,1.05934c-0.23874,0.22816 -0.62229,0.34226 -1.15064,0.34226c-0.51662,0 -0.89822,-0.1141 -1.1448,-0.34226c-0.24655,-0.22816 -0.36984,-0.58128 -0.36984,-1.05934v-19.79066c0,-0.49255 0.12329,-0.84929 0.36984,-1.07021c0.24658,-0.22092 0.62817,-0.33138 1.1448,-0.33138c0.52835,0 0.91191,0.11046 1.15064,0.33138z"/><path d="M394.73141,214.74234c1.00977,0 1.51464,0.46719 1.51464,1.40159c0,0.9344 -0.50486,1.40159 -1.51464,1.40159h-11.43607v7.01337h7.17983c1.00977,0 1.51464,0.46719 1.51464,1.40159c0,0.9344 -0.50487,1.4016 -1.51464,1.4016h-7.17983v7.20895h11.43607c1.00977,0 1.51464,0.46719 1.51464,1.40159c0,0.9344 -0.50486,1.40159 -1.51464,1.40159h-12.95071c-1.00975,0 -1.51464,-0.46719 -1.51464,-1.40159v-19.82869c0,-0.9344 0.50489,-1.40159 1.51464,-1.40159z"/><path d="M405.04525,215.57895l13.74325,16.38861v-15.82362c0,-0.9344 0.50489,-1.40159 1.51466,-1.40159c1.00973,0 1.51461,0.46719 1.51461,1.40159v19.82869c0,0.9344 -0.50489,1.40159 -1.51461,1.40159c-0.54009,0 -1.04498,-0.27887 -1.51466,-0.8366l-13.74325,-16.38346v15.81848c0,0.9344 -0.50486,1.40159 -1.51461,1.40159c-1.00977,0 -1.51464,-0.46719 -1.51464,-1.40159v-19.82869c0,-0.9344 0.50486,-1.40159 1.51464,-1.40159c0.5166,0 1.02148,0.27887 1.51461,0.83661z"/><path d="M445.15382,214.78038c0.50489,0 0.88257,0.1177 1.13304,0.35312c0.25437,0.23178 0.38157,0.58127 0.38157,1.04847c0,0.4672 -0.12721,0.8185 -0.38157,1.0539c-0.25047,0.23179 -0.62815,0.34769 -1.13304,0.34769h-6.99787v18.38908c0,0.44547 -0.12913,0.79134 -0.38744,1.0376c-0.25831,0.24266 -0.63401,0.36399 -1.12717,0.36399c-0.50489,0 -0.88454,-0.1159 -1.13891,-0.34768c-0.25053,-0.23541 -0.37576,-0.58672 -0.37576,-1.05391v-18.38908h-6.99782c-0.50489,0 -0.88449,-0.1159 -1.1389,-0.34769c-0.25047,-0.2354 -0.37571,-0.5867 -0.37571,-1.0539c0,-0.4672 0.12523,-0.8167 0.37571,-1.04847c0.25441,-0.23541 0.63401,-0.35312 1.1389,-0.35312z"/><g><path d="M47.79691,214.74234c1.00975,0 1.51463,0.46719 1.51463,1.40159c0,0.9344 -0.50487,1.40159 -1.51463,1.40159h-11.43608v7.01337h7.17984c1.00975,0 1.51464,0.46719 1.51464,1.40159c0,0.9344 -0.50489,1.4016 -1.51464,1.4016h-7.17984v7.20895h11.43608c1.00975,0 1.51463,0.46719 1.51463,1.40159c0,0.9344 -0.50487,1.40159 -1.51463,1.40159h-12.95071c-1.00975,0 -1.51463,-0.46719 -1.51463,-1.40159v-19.82869c0,-0.9344 0.50488,-1.40159 1.51463,-1.40159z"/><path d="M55.05209,214.72662c0.42854,0 0.81015,0.22797 1.14481,0.68392l6.45775,8.37695l6.49296,-8.37695c0.36135,-0.4305 0.74614,-0.64575 1.15439,-0.64575c0.29925,0 0.61111,0.11566 0.93558,0.34697c0.81798,0.55773 0.9393,1.20239 0.36398,1.93398l-7.10352,9.14836l6.81586,8.87674c0.56359,0.7678 0.43052,1.43599 -0.39921,2.00459c-0.33562,0.21096 -0.64946,0.31643 -0.94153,0.31643c-0.43,0 -0.81282,-0.22861 -1.14843,-0.68584l-6.27576,-8.17594l-5.98808,8.20854c-0.32654,0.4286 -0.70856,0.6429 -1.1461,0.6429c-0.3019,0 -0.63021,-0.10203 -0.98496,-0.30608c-0.80232,-0.51427 -0.92169,-1.17162 -0.35811,-1.97201l6.59864,-9.01254l-6.95675,-9.07774c-0.54403,-0.73521 -0.41291,-1.39072 0.39334,-1.96657c0.33701,-0.2133 0.65205,-0.31995 0.94514,-0.31995z"/><path d="M84.01227,217.54492c-1.20855,0 -2.16694,0.13421 -2.87513,0.40261c-0.73186,0.27887 -1.25436,0.75874 -1.56747,1.43962c-0.30918,0.67726 -0.46378,1.60983 -0.46378,2.79775v7.71417c0,1.18791 0.15264,2.12229 0.45791,2.80318c0.30527,0.67725 0.82386,1.15893 1.55574,1.44505c0.73578,0.28248 1.74749,0.42373 3.03513,0.42373h4.32668c1.28765,0 2.29739,-0.14125 3.02928,-0.42373c0.73579,-0.28611 1.25633,-0.76779 1.5616,-1.44505c0.30527,-0.68089 0.45791,-1.61527 0.45791,-2.80318v-7.67616c0,-1.18065 -0.15264,-2.10962 -0.45791,-2.78687c-0.30527,-0.68088 -0.82581,-1.16619 -1.5616,-1.45591c-0.73188,-0.28974 -1.74162,-0.43461 -3.02928,-0.43461h-4.32668c-0.04783,-0.00041 -0.0953,-0.00061 -0.14239,-0.00061zM84.01008,214.74178c0.04798,0 0.09617,0.00019 0.14459,0.00058h4.32668c2.76706,0 4.80418,0.60663 6.11139,1.81989c1.31112,1.21326 1.96667,3.10015 1.96667,5.66067v7.67616c0,2.54604 -0.65556,4.4293 -1.96667,5.64981c-1.30721,1.21689 -3.34432,1.82533 -6.11139,1.82533h-4.32668c-2.75531,0 -4.79047,-0.60844 -6.10549,-1.82533c-1.31504,-1.22051 -1.97255,-3.10377 -1.97255,-5.64981v-7.71417c0,-2.56778 0.65948,-4.45467 1.97842,-5.66069c1.29952,-1.18829 3.28453,-1.78244 5.95504,-1.78244z"/><path d="M117.58862,214.78038c0.50488,0 0.88257,0.1177 1.13304,0.35312c0.25441,0.23178 0.3816,0.58127 0.3816,1.04847c0,0.4672 -0.12719,0.8185 -0.3816,1.0539c-0.25047,0.23179 -0.62816,0.34769 -1.13304,0.34769h-6.99784v18.38908c0,0.44547 -0.12916,0.79134 -0.38747,1.0376c-0.25831,0.24266 -0.63403,0.36399 -1.12717,0.36399c-0.50488,0 -0.8845,-0.1159 -1.13891,-0.34768c-0.25048,-0.23541 -0.37572,-0.58672 -0.37572,-1.05391v-18.38908h-6.99784c-0.50489,0 -0.88451,-0.1159 -1.13892,-0.34769c-0.25047,-0.2354 -0.37572,-0.5867 -0.37572,-1.0539c0,-0.4672 0.12525,-0.8167 0.37572,-1.04847c0.25441,-0.23541 0.63403,-0.35312 1.13892,-0.35312z"/><path d="M126.56739,215.11176c0.24266,0.22092 0.36398,0.57765 0.36398,1.07021v19.79066c0,0.47806 -0.12132,0.83118 -0.36398,1.05934c-0.23873,0.22816 -0.62229,0.34226 -1.15065,0.34226c-0.51663,0 -0.89822,-0.1141 -1.14479,-0.34226c-0.24657,-0.22816 -0.36986,-0.58128 -0.36986,-1.05934v-19.79066c0,-0.49255 0.12329,-0.84929 0.36986,-1.07021c0.24657,-0.22092 0.62816,-0.33138 1.14479,-0.33138c0.52836,0 0.91191,0.11046 1.15065,0.33138z"/><path d="M141.47091,214.74177c0.04756,0 0.09533,0.00018 0.14332,0.00057h4.3619c2.26217,0 3.98814,0.43279 5.17795,1.29838c1.18977,0.86196 1.88057,2.22189 2.07234,4.07982c0.07045,0.4672 -0.0274,0.82393 -0.29354,1.0702c-0.26222,0.24266 -0.64576,0.36399 -1.15064,0.36399c-0.91192,0 -1.44028,-0.46719 -1.58509,-1.40159c-0.12133,-1.02494 -0.50489,-1.71487 -1.15066,-2.06979c-0.64187,-0.35856 -1.66532,-0.53782 -3.07037,-0.53782h-4.3619c-0.04786,-0.00041 -0.09531,-0.00061 -0.1424,-0.00061c-1.20827,0 -2.16273,0.13421 -2.86339,0.40262c-0.72796,0.27887 -1.24458,0.76056 -1.54985,1.44506c-0.30527,0.68449 -0.45791,1.62794 -0.45791,2.83033v7.67616c0,1.18791 0.15264,2.12229 0.45791,2.80318c0.30527,0.67725 0.82385,1.15894 1.55572,1.44505c0.73578,0.28248 1.74751,0.42373 3.03515,0.42373h4.32668c1.40506,0 2.42851,-0.18107 3.07037,-0.54325c0.64577,-0.36218 1.02933,-1.04848 1.15066,-2.05893c0.14481,-0.93439 0.67317,-1.40159 1.58509,-1.40159c0.50487,0 0.88842,0.12314 1.15064,0.36941c0.26614,0.24266 0.36399,0.59758 0.29354,1.06479c-0.19178,1.86879 -0.88256,3.23234 -2.07234,4.09068c-1.18981,0.85471 -2.91578,1.28207 -5.17795,1.28207h-4.32668c-2.75531,0 -4.79046,-0.60844 -6.1055,-1.82533c-1.31502,-1.22051 -1.97255,-3.10378 -1.97255,-5.64982v-7.67616c0,-2.57139 0.65361,-4.46552 1.96082,-5.6824c1.28818,-1.19916 3.26774,-1.79874 5.9387,-1.79874z"/></g></g><g fill="#ffe400" fill-rule="evenodd" stroke="#ffe400" stroke-width="1.5" stroke-linecap="square" stroke-linejoin="miter"><path d="M315.32358,133.77709c0.52884,0 0.98047,0.17322 1.35481,0.51964c0.37437,0.34641 0.56156,0.76432 0.56156,1.25371c0,0.47289 -0.18719,0.88806 -0.56156,1.24547c-0.37433,0.35192 -0.82597,0.52789 -1.35481,0.52789h-2.68295v36.13512h2.68295c0.52884,0 0.98047,0.1732 1.35481,0.51964c0.37437,0.34641 0.56156,0.76432 0.56156,1.25371c0,0.47289 -0.18719,0.88531 -0.56156,1.23723c-0.37433,0.35741 -0.82597,0.53612 -1.35481,0.53612h-4.59933c-1.2776,0 -1.91638,-0.5911 -1.91638,-1.77335v-39.68183c0,-1.18223 0.63878,-1.77334 1.91638,-1.77334z"/><path d="M345.44938,133.77709c1.53309,0 2.29966,0.70933 2.29966,2.12802c0,1.41869 -0.76656,2.12802 -2.29966,2.12802h-17.36329v10.64835h10.90107c1.53309,0 2.29966,0.70933 2.29966,2.12802c0,1.41869 -0.76657,2.12802 -2.29966,2.12802h-10.90107v10.94529h17.36329c1.53309,0 2.29966,0.70933 2.29966,2.12802c0,1.41869 -0.76656,2.12802 -2.29966,2.12802h-19.66295c-1.53309,0 -2.29966,-0.70933 -2.29966,-2.12802v-30.10573c0,-1.41869 0.76657,-2.12802 2.29966,-2.12802z"/><path d="M373.34689,133.77709c2.90577,0 5.18462,0.54988 6.83655,1.64962c1.65198,1.09974 2.69482,2.77962 3.12863,5.03962c0.11288,0.72583 -0.03268,1.2812 -0.43677,1.66613c-0.39814,0.37941 -0.9983,0.56912 -1.8005,0.56912c-0.7309,0 -1.28056,-0.17595 -1.64898,-0.52787c-0.36247,-0.35741 -0.6002,-0.87432 -0.71308,-1.55065c-0.29117,-0.99528 -0.84677,-1.67439 -1.66679,-2.0373c-0.82005,-0.36841 -2.05308,-0.55261 -3.69906,-0.55261h-6.5157c-2.19269,0 -3.66343,0.36016 -4.41214,1.08051c-0.7428,0.72033 -1.11418,2.06753 -1.11418,4.04159c0,1.99056 0.38329,3.35974 1.14986,4.10756c0.76652,0.74234 2.24318,1.11351 4.42995,1.11351h6.79201c3.59504,0 6.27203,0.81106 8.03094,2.4332c1.76486,1.62213 2.64727,4.12131 2.64727,7.49756c0,3.35974 -0.87646,5.83969 -2.62941,7.43984c-1.753,1.59464 -4.4359,2.39196 -8.0488,2.39196h-7.88837c-3.11968,0 -5.55304,-0.58286 -7.30009,-1.74861c-1.74105,-1.16574 -2.82851,-2.96385 -3.26228,-5.39429c-0.07726,-0.74234 0.08321,-1.30046 0.48131,-1.67437c0.40409,-0.37393 0.98939,-0.56087 1.75596,-0.56087c0.77248,0 1.33404,0.17047 1.6846,0.51138c0.35656,0.33542 0.60019,0.85781 0.73094,1.56715c0.27331,1.16574 0.8616,1.96581 1.76482,2.40021c0.90322,0.42889 2.2848,0.64336 4.14474,0.64336h7.88837c2.35311,0 3.95455,-0.39316 4.80428,-1.17949c0.84977,-0.78633 1.27464,-2.25174 1.27464,-4.39627c0,-2.1775 -0.43973,-3.66768 -1.31918,-4.47048c-0.8735,-0.80283 -2.46008,-1.20423 -4.75974,-1.20423h-6.79201c-3.44651,0 -6.00762,-0.78084 -7.68337,-2.34248c-1.66975,-1.56164 -2.50466,-3.93985 -2.50466,-7.13464c0,-3.17828 0.82597,-5.53451 2.47794,-7.06866c1.65789,-1.53965 4.21009,-2.30948 7.65661,-2.30948z"/><path d="M405.11703,133.77622c0.07219,0 0.14471,0.00028 0.21759,0.00087h6.62263c3.43466,0 6.05517,0.6571 7.86161,1.9713c1.80645,1.30871 2.85527,3.37349 3.14644,6.19435c0.10698,0.70935 -0.04159,1.25098 -0.44568,1.62489c-0.3981,0.36842 -0.98048,0.55264 -1.74701,0.55264c-1.38458,0 -2.18677,-0.70933 -2.40664,-2.12802c-0.18419,-1.55616 -0.76653,-2.60367 -1.74701,-3.14256c-0.97453,-0.54438 -2.52843,-0.81655 -4.66172,-0.81655h-6.62263c-0.07264,-0.00063 -0.14472,-0.00093 -0.21618,-0.00093c-1.83451,0 -3.28367,0.20376 -4.34747,0.61128c-1.10527,0.42341 -1.88965,1.15475 -2.35315,2.19401c-0.4635,1.03927 -0.69526,2.4717 -0.69526,4.29728v11.65465c0,1.80359 0.23177,3.22225 0.69526,4.25604c0.4635,1.02826 1.25084,1.75959 2.36206,2.194c1.11714,0.42889 2.65323,0.64336 4.60823,0.64336h6.56914c2.13329,0 3.68719,-0.27495 4.66172,-0.82481c0.98047,-0.54989 1.56282,-1.59189 1.74701,-3.12606c0.21986,-1.41867 1.02206,-2.12802 2.40664,-2.12802c0.76652,0 1.3489,0.18696 1.74701,0.56087c0.40409,0.36842 0.55266,0.90729 0.44568,1.61665c-0.29117,2.83736 -1.33999,4.90764 -3.14644,6.21085c-1.80645,1.2977 -4.42696,1.94656 -7.86161,1.94656h-6.56914c-4.18336,0 -7.27337,-0.92379 -9.26996,-2.77137c-1.99659,-1.85309 -2.99488,-4.71246 -2.99488,-8.57807v-11.65465c0,-3.90412 0.99235,-6.77996 2.97707,-8.62755c1.95582,-1.82068 4.96139,-2.731 9.01668,-2.731z"/><path d="M433.92195,133.77709c1.2776,0 1.91638,0.59112 1.91638,1.77334v39.68183c0,1.18225 -0.63878,1.77335 -1.91638,1.77335h-4.60823c-0.51103,0 -0.95967,-0.17871 -1.3459,-0.53612c-0.38033,-0.35192 -0.57048,-0.76435 -0.57048,-1.23723c0,-0.48939 0.19014,-0.90729 0.57048,-1.25371c0.38624,-0.34644 0.83487,-0.51964 1.3459,-0.51964h2.69185v-36.13512h-2.69185c-0.51103,0 -0.95967,-0.17598 -1.3459,-0.5279c-0.38033,-0.35741 -0.57048,-0.77258 -0.57048,-1.24547c0,-0.48939 0.19014,-0.90729 0.57048,-1.25371c0.38624,-0.34641 0.83487,-0.51964 1.3459,-0.51964z"/></g></g></g></svg>